# xmcd
#
# Track frame offsets:
#	150
#	14331
#	27677
#	42407
#	58343
#	71125
#	83243
#	97500
#	110631
#	123259
#	134216
#	151529
# Disc length: 2203 seconds
# Revision: 1
# Processed by: cddbd v1.5.1PL2 Copyright (c) Steve Scherf et al.
#
# Submitted via: libkcddb 0.21
#
DISCID=a408990c
DTITLE=Various Artist - BUGG 2003
DYEAR=2003
DGENRE=Dansband
TTITLE0=Arvingarna - Rakt in i hjärtat
TTITLE1=Lotta Engbergs - Bang a Boomerang
TTITLE2=Wahlströms - Du och jag mot dom
TTITLE3=Candela - Det måste va' kärlek
TTITLE4=Lasse Stefanz - Ett liv med dig
TTITLE5=Helene and Gänget - Varje steg
TTITLE6=Arvingarna - Du fick mig att öppna mina ögon
TTITLE7=Zlips - Pour me
TTITLE8=Wahlströms - Den bästa man
TTITLE9=Candela - Some days you gotta dance
TTITLE10=Lasse Stefanz - Cheerio
TTITLE11=Lotta Engbergs - Brinner för dig
EXTD=Frituna 3297 2
EXTT0=
EXTT1=
EXTT2=
EXTT3=
EXTT4=
EXTT5=
EXTT6=
EXTT7=
EXTT8=
EXTT9=
EXTT10=
EXTT11=
PLAYORDER=
